<?xml version="1.0" encoding="UTF-8"?>
<!DOCTYPE svg PUBLIC "-//W3C//DTD SVG 1.1//EN" "http://www.w3.org/Graphics/SVG/1.1/DTD/svg11.dtd">
<!-- Creator: CorelDRAW 2019 (64-Bit) -->
<svg xmlns="http://www.w3.org/2000/svg" xml:space="preserve" width="1580px" height="1728px" version="1.1" style="shape-rendering:geometricPrecision; text-rendering:geometricPrecision; image-rendering:optimizeQuality; fill-rule:evenodd; clip-rule:evenodd"
viewBox="0 0 1653.25 1807.94"
 xmlns:xlink="http://www.w3.org/1999/xlink">
 <defs>
  <style type="text/css">
   <![CDATA[
    .str1 {stroke:#ABABAB;stroke-width:2.47;stroke-miterlimit:22.9256}
    .str0 {stroke:#E4E4E4;stroke-width:2.47;stroke-miterlimit:22.9256}
    .fil1 {fill:#ABABAB}
    .fil0 {fill:#E4E4E4}
   ]]>
  </style>
 </defs>
 <g id="Capa_x0020_1">
  <metadata id="CorelCorpID_0Corel-Layer"/>
  <g id="_2714493079040">
   <rect class="fil0 str0" x="1.24" y="1.23" width="1650.78" height="1805.47"/>
   <g>
    <path class="fil1 str1" d="M448.68 1364.01l751.56 0c12.73,-9.63 22.78,-10.88 28.04,-28.26 8.6,-28.42 -15.7,-102.69 -25.74,-127.31 -37.99,-93.17 -111.64,-170.57 -204.02,-214.48 -209.15,-99.41 -469.87,1.87 -553.55,217.19 -9.93,25.55 -17.69,52.67 -23.23,81.88 -10.81,57.01 6,55.6 26.94,70.98z"/>
    <path class="fil1 str1" d="M854.82 382.89l-56.04 0c-35.28,15.68 -101.44,16.99 -154.63,81.17 -145.43,175.45 -17.42,407.42 180.45,408.84 133.3,0.95 239.29,-102.3 246.48,-228.93 5.59,-98.56 -45.41,-187.33 -124.93,-230.04 -35.15,-18.87 -62.91,-18.41 -91.33,-31.04z"/>
   </g>
  </g>
 </g>
</svg>
